<svg width="49" height="19" viewBox="0 0 49 19" fill="none" xmlns="http://www.w3.org/2000/svg">
<path d="M43.1221 2.70285C40.1218 2.70285 37.6803 5.15768 37.6803 8.17548C37.6803 11.1933 40.1218 13.6481 43.1221 13.6481C46.1217 13.6481 48.5625 11.1933 48.5625 8.17548C48.5625 5.15768 46.1217 2.70285 43.1221 2.70285ZM43.1221 11.0545C41.5442 11.0545 40.259 9.76154 40.259 8.17548C40.259 6.58872 41.5442 5.29648 43.1221 5.29648C44.6986 5.29648 45.9845 6.58872 45.9845 8.17548C45.9845 9.76224 44.6993 11.0545 43.1214 11.0545H43.1221ZM27.0979 7.06715L26.1463 6.58943C25.7332 6.38368 25.4742 6.22444 25.37 6.10678C25.2707 6.00251 25.2142 5.86469 25.2117 5.72065C25.2117 5.53605 25.2947 5.38033 25.458 5.25914C25.6199 5.13231 25.85 5.07454 26.1421 5.07454C26.6763 5.07454 27.2682 5.39724 27.9199 6.04759L29.526 4.43194C29.1314 3.89393 28.6153 3.45694 28.0199 3.15661C27.4322 2.86063 26.783 2.70803 26.1252 2.7113C25.1448 2.7113 24.3354 3.00089 23.7048 3.5843C23.0749 4.16771 22.7582 4.86879 22.7582 5.69106C22.7582 6.96639 23.5922 8.02893 25.2659 8.87233L26.1421 9.31271C26.8973 9.69531 27.2731 10.085 27.2731 10.488C27.2731 10.7064 27.1683 10.8952 26.9599 11.0629C26.7516 11.2313 26.4757 11.311 26.1337 11.311C25.817 11.311 25.4538 11.2017 25.0449 10.9798C24.6374 10.7614 24.2749 10.4678 23.9765 10.1145L22.3789 11.8648C23.2797 13.0485 24.4811 13.6446 25.9915 13.6446C27.1267 13.6446 28.0325 13.3339 28.704 12.7166C29.3796 12.1001 29.7174 11.3279 29.7174 10.4041C29.7174 9.71151 29.5302 9.10344 29.1586 8.58697C28.7835 8.0705 28.0952 7.56741 27.0979 7.06785V7.06715ZM10.9413 12.4559V2.92057H8.35838V3.55894C7.48805 2.9989 6.47501 2.70169 5.44041 2.70285C2.44079 2.70285 0 5.15768 0 8.17548C0 11.1933 2.44079 13.6481 5.44111 13.6481C6.4633 13.6497 7.46485 13.3601 8.32882 12.8132C8.32882 12.897 8.3246 12.9724 8.3246 13.0231C8.3246 14.6092 7.03945 15.9021 5.46223 15.9021C4.92594 15.9009 4.40091 15.748 3.94764 15.4611L2.67023 17.7108C3.51256 18.2252 4.47979 18.4982 5.46645 18.5C8.46677 18.5 10.9413 16.0445 10.9413 13.0267C10.9413 12.9097 10.9491 12.5651 10.9413 12.4559ZM5.44111 11.0538C3.86459 11.0538 2.57874 9.76154 2.57874 8.17548C2.57874 6.58872 3.86389 5.29648 5.44111 5.29648C7.01834 5.29648 8.30349 6.58872 8.30349 8.17548C8.30349 9.76154 7.01834 11.0545 5.44111 11.0545V11.0538ZM21.2303 2.91705H18.6346V8.11982C18.6389 8.85895 18.6389 10.135 18.0969 10.6803C17.8379 10.9403 17.5543 11.1757 16.9575 11.1757C16.3564 11.1757 16.0728 10.9403 15.8145 10.6803C15.2719 10.1343 15.2761 8.85472 15.2796 8.11982V2.91705H12.6847V8.10432C12.6762 9.1739 12.6636 11.1595 13.9656 12.4771C14.7292 13.2493 15.6392 13.6439 16.9532 13.6439C18.2679 13.6439 19.1773 13.2535 19.9409 12.4771C21.2429 11.1595 21.2303 9.16967 21.2218 8.10432L21.2303 2.91634V2.91705ZM35.9391 10.5887C35.7307 10.748 35.2254 11.101 34.6539 11.0214C34.1866 10.958 33.8072 10.6141 33.7488 9.4642V5.14993H36.7991V2.90859H33.7488V0H31.1616V0.570727H31.1574V9.12458C31.1574 10.4845 31.4995 13.6439 34.6497 13.6439C36.2438 13.6192 37.2116 12.7505 37.6169 12.4108L37.6711 12.3686L36.1185 10.4464C36.1143 10.4499 36.0059 10.538 35.9391 10.5887Z" fill="#F45D48"/>
</svg>
