<svg width="41" height="17" viewBox="0 0 41 17" fill="none" xmlns="http://www.w3.org/2000/svg">
<path fill-rule="evenodd" clip-rule="evenodd" d="M40.4863 8.90844C40.4863 6.08869 39.1204 3.86372 36.51 3.86372C33.8885 3.86372 32.3024 6.08869 32.3024 8.88641C32.3024 12.2018 34.1748 13.8761 36.8624 13.8761C38.1732 13.8761 39.1645 13.5787 39.9135 13.1601V10.9572C39.1645 11.3317 38.3054 11.563 37.2149 11.563C36.1465 11.563 35.1992 11.1885 35.0781 9.88875H40.4642C40.4642 9.74556 40.4863 9.1728 40.4863 8.90844ZM35.045 7.86205C35.045 6.61739 35.805 6.0997 36.4989 6.0997C37.1708 6.0997 37.8868 6.61739 37.8868 7.86205H35.045Z" fill="#635BFF"/>
<path fill-rule="evenodd" clip-rule="evenodd" d="M28.0506 3.86372C26.9712 3.86372 26.2772 4.37039 25.8917 4.72286L25.7485 4.03995H23.3253V16.8831L26.079 16.2993L26.09 13.1821C26.4865 13.4685 27.0703 13.8761 28.0396 13.8761C30.0112 13.8761 31.8066 12.2899 31.8066 8.79829C31.7956 5.60403 29.9782 3.86372 28.0506 3.86372ZM27.3897 11.4528C26.7399 11.4528 26.3543 11.2215 26.09 10.9351L26.079 6.84869C26.3654 6.52927 26.7619 6.30897 27.3897 6.30897C28.3921 6.30897 29.086 7.43247 29.086 8.87539C29.086 10.3514 28.4031 11.4528 27.3897 11.4528Z" fill="#635BFF"/>
<path fill-rule="evenodd" clip-rule="evenodd" d="M19.5362 3.21383L22.3009 2.61904V0.383057L19.5362 0.966834V3.21383Z" fill="#635BFF"/>
<path d="M22.3009 4.05095H19.5362V13.6888H22.3009V4.05095Z" fill="#635BFF"/>
<path fill-rule="evenodd" clip-rule="evenodd" d="M16.5731 4.86603L16.3969 4.05095H14.0177V13.6888H16.7714V7.15708C17.4213 6.30895 18.5227 6.46316 18.8642 6.58432V4.05095C18.5117 3.91877 17.223 3.67645 16.5731 4.86603Z" fill="#635BFF"/>
<path fill-rule="evenodd" clip-rule="evenodd" d="M11.0659 1.66075L8.37831 2.23351L8.3673 11.0563C8.3673 12.6864 9.58993 13.887 11.2201 13.887C12.1233 13.887 12.7842 13.7218 13.1477 13.5235V11.2876C12.7952 11.4308 11.0549 11.9374 11.0549 10.3073V6.39706H13.1477V4.05093H11.0549L11.0659 1.66075Z" fill="#635BFF"/>
<path fill-rule="evenodd" clip-rule="evenodd" d="M3.62009 6.8487C3.62009 6.41913 3.97256 6.25391 4.55633 6.25391C5.39345 6.25391 6.45086 6.50724 7.28797 6.95885V4.3704C6.37375 4.00691 5.47055 3.86372 4.55633 3.86372C2.32036 3.86372 0.833374 5.03128 0.833374 6.98088C0.833374 10.0209 5.01895 9.53628 5.01895 10.847C5.01895 11.3537 4.57836 11.5189 3.96154 11.5189C3.04732 11.5189 1.87977 11.1444 0.954535 10.6377V13.2592C1.9789 13.6998 3.01428 13.8871 3.96154 13.8871C6.25259 13.8871 7.82769 12.7526 7.82769 10.7809C7.81668 7.49856 3.62009 8.08234 3.62009 6.8487Z" fill="#635BFF"/>
</svg>
